SplineFontDB: 3.2
FontName: Konemo_Cursive
FullName: Konemo Cursive
FamilyName: Konemo_Cursive
Weight: Regular
Copyright: Copyright (c) 2024, Jorim
UComments: "2024-12-18: Created with FontForge (http://fontforge.org)"
Version: 001.000
ItalicAngle: 0
UnderlinePosition: -100
UnderlineWidth: 50
Ascent: 800
Descent: 200
InvalidEm: 0
LayerCount: 2
Layer: 0 0 "Back" 1
Layer: 1 0 "Fore" 0
XUID: [1021 604 -182473755 11704715]
FSType: 0
OS2Version: 0
OS2_WeightWidthSlopeOnly: 0
OS2_UseTypoMetrics: 1
CreationTime: 1734519155
ModificationTime: 1735405060
PfmFamily: 17
TTFWeight: 400
TTFWidth: 5
LineGap: 90
VLineGap: 0
OS2TypoAscent: 0
OS2TypoAOffset: 1
OS2TypoDescent: 0
OS2TypoDOffset: 1
OS2TypoLinegap: 90
OS2WinAscent: 0
OS2WinAOffset: 1
OS2WinDescent: 0
OS2WinDOffset: 1
HheadAscent: 0
HheadAOffset: 1
HheadDescent: 0
HheadDOffset: 1
OS2Vendor: 'PfEd'
Lookup: 258 0 0 "nums" { "nums-1" [150,15,0] "nums-2" [150,15,0] } []
Lookup: 258 0 0 "konemo_numbers" { "konemo_numbers-1" [150,15,0] "konemo_numbers-2" [150,15,0] } []
MarkAttachClasses: 1
DEI: 91125
KernClass2: 1 1 "nums-2"
 0 {}
KernClass2: 1 1 "nums-1"
 0 {}
LangName: 1033
Encoding: ISO8859-1
UnicodeInterp: none
NameList: Adobe Glyph List
DisplaySize: -48
AntiAlias: 1
FitToEm: 0
WinInfo: 96 16 4
BeginPrivate: 0
EndPrivate
TeXData: 1 0 0 1153434 576716 384477 445645 1048576 384477 783286 444596 497025 792723 393216 433062 380633 303038 157286 324010 404750 52429 2506097 1059062 262144
AnchorClass2: "middle"""  "right"""  "left"""  "bottom"""  "top""" 
BeginChars: 256 251

StartChar: A
Encoding: 65 65 0
Width: 600
Flags: W
HStem: 376 50<95 574.616> 803 20G<293.5 306.5> 803 20G<293.5 306.5>
LayerCount: 2
Fore
SplineSet
575 400 m 0xc0
 575 386 564 375 550 375 c 2
 49 376 l 2
 36 376 25 387 25 401 c 0
 25 406 26 410 28 414 c 2
 278 811 l 2
 280 814 287 823 300 823 c 0
 313 823 324 812 324 798 c 0
 324 793 323 789 321 785 c 2
 95 426 l 1
 551 425 l 2
 564 425 575 414 575 400 c 0xc0
EndSplineSet
Validated: 1
EndChar

StartChar: B
Encoding: 66 66 1
Width: 600
Flags: W
HStem: 375 21G<43 56.5 548.5 557> 805 20G<293.5 301.5 543 557> 905 20G<543 557>
VStem: 525 50<675.198 924.802>
LayerCount: 2
Fore
SplineSet
265 727 m 1053
575 400 m 0
 575 386 564 375 550 375 c 0
 547 375 536 376 529 387 c 2
 300 753 l 1
 71 387 l 2
 70 384 63 375 50 375 c 0
 36 375 25 386 25 400 c 0
 25 405 26 409 29 413 c 2
 279 813 l 2
 280 816 287 825 300 825 c 0
 303 825 314 824 321 813 c 2
 571 413 l 2
 574 409 575 405 575 400 c 0
550 675 m 0
 536 675 525 686 525 700 c 2
 525 900 l 2
 525 914 536 925 550 925 c 0
 564 925 575 914 575 900 c 2
 575 700 l 2
 575 686 564 675 550 675 c 0
EndSplineSet
Validated: 1
EndChar

StartChar: a
Encoding: 97 97 2
Width: 400
Flags: W
HStem: -25 50<128.064 179.039> 375 50<-24.8024 19.5696 326.079 424.802> 414 50<177.719 273.556> 775 50<159.587 226.892>
VStem: 74 50<25.9924 275.096> 275 50<208.297 383 449 645.475>
LayerCount: 2
Fore
SplineSet
144 -25 m 0xdc
 112 -25 74 1 74 78 c 0
 74 97 87 259 109 349 c 0
 123 403 145 464 207 464 c 0xbc
 230 464 253 456 275 449 c 1
 274 513 270 643 243 720 c 0
 235 744 221 775 200 775 c 4
 187 775 155 774 129 693 c 4
 95 589 94 444 44 394 c 0
 33 383 18 375 -0 375 c 0
 -14 375 -25 386 -25 400 c 0
 -25 414 -14 425 0 425 c 0
 14 425 26 460 29 473 c 0
 48 534 57 632 81 708 c 0
 90 736 119 825 200 825 c 0
 297 825 323 651 325 435 c 1
 348 429 372 425 400 425 c 0
 414 425 425 414 425 400 c 0
 425 386 414 375 400 375 c 0
 372 375 347 379 325 383 c 1
 321 120 223 -25 144 -25 c 0xdc
275 397 m 1
 235 409 221 414 207 414 c 0
 198 414 192 411 187 406 c 0
 155 374 138 244 125 98 c 0
 124 91 124 84 124 78 c 0
 124 49 131 25 144 25 c 0
 181 25 274 137 275 397 c 1
EndSplineSet
Validated: 1
EndChar

StartChar: b
Encoding: 98 98 3
Width: 400
Flags: W
HStem: 375 50<-24.8024 47.841 354.076 424.802> 805 20G<193.5 206.5 343 357> 905 20G<343 357>
VStem: 325 50<675.198 924.802>
LayerCount: 2
Fore
SplineSet
200 665 m 1
 169 537 111 375 -0 375 c 0
 -14 375 -25 386 -25 400 c 0
 -25 414 -14 425 0 425 c 0
 56 425 105 510 140 632 c 0
 165 722 175 803 175 803 c 2
 177 816 187 825 200 825 c 0
 213 825 223 816 225 803 c 0
 232 749 269 529 347 451 c 0
 365 433 382 425 400 425 c 0
 414 425 425 414 425 400 c 0
 425 386 414 375 400 375 c 0
 306 375 241 494 200 665 c 1
350 675 m 0
 336 675 325 686 325 700 c 2
 325 900 l 2
 325 914 336 925 350 925 c 0
 364 925 375 914 375 900 c 2
 375 700 l 2
 375 686 364 675 350 675 c 0
EndSplineSet
Validated: 1
EndChar

StartChar: c
Encoding: 99 99 4
Width: 400
Flags: W
HStem: -25 50<164.315 223.432> 375 50<-24.8024 28.687 376.758 424.802> 805 20G<241 257>
VStem: 75 50<183.806 426.578>
LayerCount: 2
Fore
SplineSet
0 375 m 0
 -14 375 -25 386 -25 400 c 0
 -25 414 -14 425 0 425 c 0
 5 425 11 427 19 435 c 0
 72 488 102 689 187 783 c 0
 212 815 232 825 250 825 c 0
 264 825 275 814 275 800 c 0
 275 794 273 787 268 782 c 0
 261 775 248 775 226 752 c 0
 209 729 189 692 172 648 c 0
 146 578 125 488 125 400 c 0
 125 309 125 219 134 150 c 0
 150 26 187 25 200 25 c 0
 203 25 207 26 213 32 c 0
 239 58 259 138 276 206 c 0
 287 249 297 293 311 330 c 0
 321 357 346 425 400 425 c 0
 414 425 425 414 425 400 c 0
 425 386 414 375 400 375 c 0
 397 375 393 374 387 368 c 0
 347 328 323 164 289 70 c 0
 279 43 254 -25 200 -25 c 0
 175 -25 153 -15 137 1 c 0
 76 62 75 216 75 393 c 0
 75 395 75 398 75 400 c 0
 75 409 75 418 76 427 c 1
 52 389 25 375 0 375 c 0
EndSplineSet
Validated: 1
EndChar

StartChar: d
Encoding: 100 100 5
Width: 400
Flags: W
HStem: 375 50<-24.8024 54.2834 345.717 424.802> 805 20G<294.5 307 368 382> 905 20G<368 382>
VStem: 75 48<-24.8024 -9> 350 50<675.198 924.802>
LayerCount: 2
Fore
SplineSet
100 -25 m 0
 86 -25 75 -14 75 0 c 0
 75 3 76 6 77 9 c 0
 78 13 167 251 280 364 c 0
 315 398 355 425 400 425 c 0
 414 425 425 414 425 400 c 0
 425 386 414 375 400 375 c 0
 343 375 268 292 193 145 c 0
 150 63 123 -9 123 -9 c 2
 120 -18 111 -25 100 -25 c 0
300 825 m 0
 314 825 325 814 325 800 c 0
 325 797 324 794 323 791 c 0
 322 787 233 549 120 436 c 0
 85 402 45 375 -0 375 c 0
 -14 375 -25 386 -25 400 c 0
 -25 414 -14 425 0 425 c 0
 57 425 132 508 207 655 c 0
 250 737 277 809 277 809 c 2
 280 818 289 825 300 825 c 0
375 675 m 0
 361 675 350 686 350 700 c 2
 350 900 l 2
 350 914 361 925 375 925 c 0
 389 925 400 914 400 900 c 2
 400 700 l 2
 400 686 389 675 375 675 c 0
EndSplineSet
Validated: 1
EndChar

StartChar: e
Encoding: 101 101 6
Width: 400
Flags: W
HStem: -25 50<159.587 226.892> 336 51<177.719 273.556> 366 51<325 398.69> 375 50<-24.8024 19.6609 326.079 424.802> 775 50<128.064 179.039>
VStem: 74 50<525.264 774.008> 275 50<154.787 351 417 591.703>
LayerCount: 2
Fore
SplineSet
144 825 m 0xce
 223 825 321 680 325 417 c 1xae
 347 422 372 425 400 425 c 0
 414 425 425 414 425 400 c 0
 425 387 414 375 400 375 c 0x9e
 372 375 348 371 325 366 c 1xae
 323 149 297 -25 200 -25 c 0
 119 -25 90 64 81 92 c 0
 57 168 48 266 29 328 c 0
 26 340 14 375 0 375 c 0
 -14 375 -25 387 -25 400 c 0
 -25 414 -14 425 0 425 c 0x9e
 18 425 33 418 44 406 c 0
 94 356 95 211 129 108 c 0
 155 26 187 25 200 25 c 0
 221 25 235 56 243 80 c 0
 270 158 274 287 275 351 c 1
 253 344 230 336 207 336 c 0
 145 336 123 397 109 451 c 0
 87 541 74 704 74 722 c 0
 74 799 112 825 144 825 c 0xce
275 403 m 1
 274 663 181 775 144 775 c 0
 131 775 124 751 124 722 c 0
 124 716 124 709 125 703 c 0
 138 557 155 426 187 394 c 0
 192 389 198 387 207 387 c 0xce
 221 387 235 391 275 403 c 1
EndSplineSet
Validated: 1
EndChar

StartChar: f
Encoding: 102 102 7
Width: 400
Flags: W
HStem: -25 50<176.568 235.685> 375 50<-24.8024 23.2419 371.313 424.802> 805 20G<143 159>
VStem: 275 50<183.806 426.578>
LayerCount: 2
Fore
SplineSet
400 375 m 0
 375 375 348 389 324 427 c 1
 325 418 325 409 325 400 c 0
 325 398 325 395 325 393 c 0
 325 216 324 62 263 1 c 0
 247 -15 225 -25 200 -25 c 0
 146 -25 121 43 111 70 c 0
 77 164 53 328 13 368 c 0
 7 374 3 375 -0 375 c 0
 -14 375 -25 386 -25 400 c 0
 -25 414 -14 425 0 425 c 0
 54 425 79 357 89 330 c 0
 103 293 113 249 124 206 c 0
 141 138 161 58 187 32 c 0
 193 26 197 25 200 25 c 0
 213 25 250 26 266 150 c 0
 275 219 275 309 275 400 c 0
 275 488 254 578 228 648 c 0
 211 692 191 729 174 752 c 0
 152 775 139 775 132 782 c 0
 127 787 125 794 125 800 c 0
 125 814 136 825 150 825 c 0
 168 825 188 815 213 783 c 0
 298 689 328 488 381 435 c 0
 389 427 395 425 400 425 c 0
 414 425 425 414 425 400 c 0
 425 386 414 375 400 375 c 0
EndSplineSet
Validated: 1
EndChar

StartChar: g
Encoding: 103 103 8
Width: 400
Flags: W
HStem: 375 50<-24.8024 34.3209 228.004 424.802> 802 20G<312 322> 802 20G<312 322 368 382> 905 20G<368 382>
VStem: -25 181<393 568> 350 50<675.198 924.802>
LayerCount: 2
Fore
SplineSet
400 375 m 0xdc
 285 375 139 391 111 490 c 1
 109 486 107 482 106 478 c 0
 91 446 81 419 60 399 c 0
 45 384 24 375 -0 375 c 0
 -14 375 -25 386 -25 400 c 0
 -25 414 -14 425 0 425 c 0
 23 425 31 433 60 498 c 0
 93 574 145 687 299 816 c 0
 304 820 309 822 315 822 c 0
 329 822 340 811 340 797 c 0
 340 790 337 783 331 778 c 0
 291 744 156 613 156 523 c 0
 156 443 286 425 400 425 c 0
 414 425 425 414 425 400 c 0
 425 386 414 375 400 375 c 0xdc
375 675 m 0
 361 675 350 686 350 700 c 2
 350 900 l 2
 350 914 361 925 375 925 c 0
 389 925 400 914 400 900 c 2
 400 700 l 2
 400 686 389 675 375 675 c 0
EndSplineSet
Validated: 1
EndChar

StartChar: h
Encoding: 104 104 9
Width: 400
Flags: W
HStem: -25 50<142.216 257.784> 375 50<-24.8024 24.25 375.75 424.802> 775 51<142.998 256.161>
VStem: 25 50<183.875 379> 325 100<384.37 424.802> 325 50<183.875 379 425.115 597.034>
LayerCount: 2
Fore
SplineSet
-25 400 m 0xf4
 -25 414 -14 425 0 425 c 0
 7 425 16 426 25 448 c 1
 26 576 37 701 91 771 c 0
 110 798 143 826 199 826 c 0
 227 826 263 818 295 787 c 0
 359 723 373 595 375 448 c 1xf4
 384 426 393 425 400 425 c 0
 414 425 425 414 425 400 c 0xf8
 425 386 414 375 400 375 c 0
 391 375 383 377 375 379 c 1
 375 238 368 86 296 14 c 0
 271 -10 239 -25 200 -25 c 0
 161 -25 129 -10 104 14 c 0
 33 86 25 238 25 379 c 1
 17 377 9 375 -0 375 c 0
 -14 375 -25 386 -25 400 c 0xf4
200 775 m 0
 181 775 154 771 132 741 c 0
 85 671 102 521 75 439 c 1
 75 425 75 412 75 400 c 0
 75 292 75 114 140 49 c 0
 155 34 174 25 200 25 c 0
 226 25 245 34 260 49 c 0
 325 114 325 292 325 400 c 0xf8
 325 412 325 425 325 438 c 1
 296 527 317 701 253 757 c 0
 241 767 227 775 200 775 c 0
EndSplineSet
Validated: 1
EndChar

StartChar: j
Encoding: 106 106 11
Width: 400
Flags: W
HStem: -25 50<164.315 223.432> 375 50<-24.8024 28.687 376.758 424.802> 805 20G<241 257 343 357> 905 20G<343 357>
VStem: 75 50<183.806 426.578> 325 50<675.198 924.802>
LayerCount: 2
Fore
SplineSet
0 375 m 0
 -14 375 -25 386 -25 400 c 0
 -25 414 -14 425 0 425 c 0
 5 425 11 427 19 435 c 4
 72 488 102 689 187 783 c 4
 212 815 232 825 250 825 c 0
 264 825 275 814 275 800 c 0
 275 794 273 787 268 782 c 0
 261 775 248 775 226 752 c 0
 209 729 189 692 172 648 c 0
 146 578 125 488 125 400 c 0
 125 309 125 219 134 150 c 0
 150 26 187 25 200 25 c 0
 203 25 207 26 213 32 c 0
 239 58 259 138 276 206 c 0
 287 249 297 293 311 330 c 0
 321 357 346 425 400 425 c 0
 414 425 425 414 425 400 c 0
 425 386 414 375 400 375 c 0
 397 375 393 374 387 368 c 0
 347 328 323 164 289 70 c 0
 279 43 254 -25 200 -25 c 0
 175 -25 153 -15 137 1 c 0
 76 62 75 216 75 393 c 0
 75 395 75 398 75 400 c 0
 75 409 75 418 76 427 c 1
 52 389 25 375 0 375 c 0
350 675 m 0
 336 675 325 686 325 700 c 2
 325 900 l 2
 325 914 336 925 350 925 c 0
 364 925 375 914 375 900 c 2
 375 700 l 2
 375 686 364 675 350 675 c 0
EndSplineSet
Validated: 1
EndChar

StartChar: k
Encoding: 107 107 12
Width: 400
Flags: W
HStem: 375 50<-24.8024 34.3209 228.004 424.802> 802 20G<312 322> 802 20G<312 322>
VStem: -25 181<393 568>
LayerCount: 2
Fore
SplineSet
400 375 m 0xd0
 285 375 139 391 111 490 c 1
 109 486 107 482 106 478 c 0
 91 446 81 419 60 399 c 0
 45 384 24 375 -0 375 c 0
 -14 375 -25 386 -25 400 c 0
 -25 414 -14 425 0 425 c 0
 23 425 31 433 60 498 c 0
 93 574 145 687 299 816 c 0
 304 820 309 822 315 822 c 0
 329 822 340 811 340 797 c 0
 340 790 337 783 331 778 c 0
 291 744 156 613 156 523 c 0
 156 443 286 425 400 425 c 0
 414 425 425 414 425 400 c 0
 425 386 414 375 400 375 c 0xd0
EndSplineSet
Validated: 1
EndChar

StartChar: l
Encoding: 108 108 13
Width: 400
Flags: W
HStem: -25 50<142.216 257.784> 375 50<-24.8024 24.25 375.75 424.802> 775 51<142.998 256.161> 905 20G<368 382> 905 20G<368 382>
VStem: -25 100<384.37 424.802> 25 50<183.875 379> 325 50<183.875 379 425.115 597.034> 350 50<675.198 924.802>
LayerCount: 2
Fore
SplineSet
200 775 m 0xe5
 181 775 154 771 132 741 c 0
 85 671 102 521 75 439 c 1xe3
 75 425 75 412 75 400 c 0
 75 292 75 114 140 49 c 0
 155 34 174 25 200 25 c 0
 226 25 245 34 260 49 c 0
 325 114 325 292 325 400 c 0
 325 412 325 425 325 438 c 1
 296 527 317 701 253 757 c 0
 241 767 227 775 200 775 c 0xe5
-25 400 m 0xe4
 -25 414 -14 425 0 425 c 0
 7 425 16 426 25 448 c 1
 26 576 37 701 91 771 c 0
 110 798 143 826 199 826 c 0
 227 826 263 818 295 787 c 0
 359 723 373 595 375 448 c 1xe3
 384 426 393 425 400 425 c 0
 414 425 425 414 425 400 c 0
 425 386 414 375 400 375 c 0xe080
 391 375 383 377 375 379 c 1
 375 238 368 86 296 14 c 0
 271 -10 239 -25 200 -25 c 0
 161 -25 129 -10 104 14 c 0
 33 86 25 238 25 379 c 1xe3
 17 377 9 375 -0 375 c 0
 -14 375 -25 386 -25 400 c 0xe4
375 675 m 0
 361 675 350 686 350 700 c 2
 350 900 l 2xf080
 350 914 361 925 375 925 c 0xf1
 389 925 400 914 400 900 c 2
 400 700 l 2xf080
 400 686 389 675 375 675 c 0
EndSplineSet
Validated: 1
EndChar

StartChar: m
Encoding: 109 109 14
Width: 400
Flags: W
HStem: 375 50<-24.8024 171.996 365.679 424.802> 802 20G<78 88> 802 20G<78 88>
VStem: 244 181<393 568>
LayerCount: 2
Fore
SplineSet
0 375 m 0xd0
 -14 375 -25 386 -25 400 c 0
 -25 414 -14 425 0 425 c 0
 114 425 244 443 244 523 c 0
 244 613 109 744 69 778 c 0
 63 783 60 790 60 797 c 0
 60 811 71 822 85 822 c 0
 91 822 96 820 101 816 c 0
 255 687 307 574 340 498 c 0
 369 433 377 425 400 425 c 0
 414 425 425 414 425 400 c 0
 425 386 414 375 400 375 c 0
 376 375 355 384 340 399 c 0
 319 419 309 446 294 478 c 0
 293 482 291 486 289 490 c 1
 261 391 115 375 0 375 c 0xd0
EndSplineSet
Validated: 1
EndChar

StartChar: n
Encoding: 110 110 15
Width: 400
Flags: W
HStem: 375 50<-24.8024 54.2834 345.717 424.802> 805 20G<93 105.5>
VStem: 75 48<809 824.802> 277 48<-24.8024 -9>
LayerCount: 2
Fore
SplineSet
100 825 m 0
 111 825 120 818 123 809 c 2
 123 809 150 737 193 655 c 0
 268 508 343 425 400 425 c 0
 414 425 425 414 425 400 c 0
 425 386 414 375 400 375 c 0
 355 375 315 402 280 436 c 0
 167 549 78 787 77 791 c 0
 76 794 75 797 75 800 c 0
 75 814 86 825 100 825 c 0
300 -25 m 0
 289 -25 280 -18 277 -9 c 2
 277 -9 250 63 207 145 c 0
 132 292 57 375 0 375 c 0
 -14 375 -25 386 -25 400 c 0
 -25 414 -14 425 0 425 c 0
 45 425 85 398 120 364 c 0
 233 251 322 13 323 9 c 0
 324 6 325 3 325 0 c 0
 325 -14 314 -25 300 -25 c 0
EndSplineSet
Validated: 1
EndChar

StartChar: o
Encoding: 111 111 16
Width: 400
Flags: W
HStem: -25 50<159.587 226.892> 336 51<177.719 273.556> 366 51<325 398.69> 375 50<-24.8024 19.6609 326.079 424.802> 775 50<128.064 179.039>
VStem: 74 50<525.264 774.008> 275 50<154.787 351 417 591.703>
LayerCount: 2
Fore
SplineSet
144 825 m 0xce
 223 825 321 680 325 417 c 1xae
 347 422 372 425 400 425 c 0
 414 425 425 414 425 400 c 0
 425 387 414 375 400 375 c 0x9e
 372 375 348 371 325 366 c 1xae
 323 149 297 -25 200 -25 c 0
 119 -25 90 64 81 92 c 0
 57 168 48 266 29 328 c 0
 26 340 14 375 0 375 c 0
 -14 375 -25 387 -25 400 c 0
 -25 414 -14 425 -0 425 c 0x9e
 18 425 33 418 44 406 c 0
 94 356 95 211 129 108 c 0
 155 26 187 25 200 25 c 0
 221 25 235 56 243 80 c 0
 270 158 274 287 275 351 c 1
 253 344 230 336 207 336 c 0
 145 336 123 397 109 451 c 0
 87 541 74 704 74 722 c 0
 74 799 112 825 144 825 c 0xce
275 403 m 1
 274 663 181 775 144 775 c 0
 131 775 124 751 124 722 c 0
 124 716 124 709 125 703 c 0
 138 557 155 426 187 394 c 0
 192 389 198 387 207 387 c 0xce
 221 387 235 391 275 403 c 1
EndSplineSet
Validated: 1
EndChar

StartChar: p
Encoding: 112 112 17
Width: 400
Flags: W
HStem: 375 50<-24.8024 47.841 354.076 424.802> 805 20G<193.5 206.5>
LayerCount: 2
Fore
SplineSet
200 665 m 1
 169 537 111 375 -0 375 c 0
 -14 375 -25 386 -25 400 c 0
 -25 414 -14 425 0 425 c 0
 56 425 105 510 140 632 c 0
 165 722 175 803 175 803 c 2
 177 816 187 825 200 825 c 0
 213 825 223 816 225 803 c 0
 232 749 269 529 347 451 c 0
 365 433 382 425 400 425 c 0
 414 425 425 414 425 400 c 0
 425 386 414 375 400 375 c 0
 306 375 241 494 200 665 c 1
EndSplineSet
Validated: 1
EndChar

StartChar: q
Encoding: 113 113 18
Width: 400
Flags: W
HStem: 375 50<-24.8024 47.841 354.076 424.802>
LayerCount: 2
Fore
SplineSet
200 135 m 1
 241 306 306 425 400 425 c 0
 414 425 425 414 425 400 c 0
 425 386 414 375 400 375 c 0
 382 375 365 367 347 349 c 0
 269 271 232 51 225 -3 c 0
 223 -16 213 -25 200 -25 c 0
 187 -25 177 -16 175 -3 c 2
 175 -3 165 78 140 168 c 0
 105 290 56 375 0 375 c 0
 -14 375 -25 386 -25 400 c 0
 -25 414 -14 425 -0 425 c 0
 111 425 169 263 200 135 c 1
EndSplineSet
Validated: 1
EndChar

StartChar: r
Encoding: 114 114 19
Width: 400
Flags: W
HStem: 375 50<-24.8024 23.2419 371.313 424.802> 775 50<176.568 235.685> 905 20G<343 357> 905 20G<343 357>
VStem: 275 50<373.422 616.194> 325 50<675.198 924.802>
LayerCount: 2
Fore
SplineSet
400 425 m 0xc8
 414 425 425 414 425 400 c 0
 425 386 414 375 400 375 c 0
 395 375 389 373 381 365 c 0
 328 312 298 111 213 17 c 0
 188 -15 168 -25 150 -25 c 0
 136 -25 125 -14 125 0 c 0
 125 6 127 13 132 18 c 0
 139 25 152 25 174 48 c 0
 191 71 211 108 228 152 c 0
 254 222 275 312 275 400 c 0
 275 491 275 581 266 650 c 0
 250 774 213 775 200 775 c 0
 197 775 193 774 187 768 c 0
 161 742 141 662 124 594 c 0
 113 551 103 507 89 470 c 0
 79 443 54 375 0 375 c 0
 -14 375 -25 386 -25 400 c 0
 -25 414 -14 425 -0 425 c 0
 3 425 7 426 13 432 c 0
 53 472 77 636 111 730 c 0
 121 757 146 825 200 825 c 0
 225 825 247 815 263 799 c 0
 324 738 325 584 325 407 c 0
 325 405 325 402 325 400 c 0
 325 391 325 382 324 373 c 1
 348 411 375 425 400 425 c 0xc8
350 675 m 0
 336 675 325 686 325 700 c 2
 325 900 l 2
 325 914 336 925 350 925 c 0
 364 925 375 914 375 900 c 2
 375 700 l 2xe4
 375 686 364 675 350 675 c 0
EndSplineSet
Validated: 1
EndChar

StartChar: s
Encoding: 115 115 20
Width: 400
Flags: W
HStem: 375 50<-24.8024 28.687 376.758 424.802> 775 50<164.315 223.432>
VStem: 75 50<373.422 616.194>
LayerCount: 2
Fore
SplineSet
0 425 m 0
 25 425 52 411 76 373 c 1
 75 382 75 391 75 400 c 0
 75 402 75 405 75 407 c 0
 75 584 76 738 137 799 c 0
 153 815 175 825 200 825 c 0
 254 825 279 757 289 730 c 0
 323 636 347 472 387 432 c 0
 393 426 397 425 400 425 c 0
 414 425 425 414 425 400 c 0
 425 386 414 375 400 375 c 0
 346 375 321 443 311 470 c 0
 297 507 287 551 276 594 c 0
 259 662 239 742 213 768 c 0
 207 774 203 775 200 775 c 0
 187 775 150 774 134 650 c 0
 125 581 125 491 125 400 c 0
 125 312 146 222 172 152 c 0
 189 108 209 71 226 48 c 0
 248 25 261 25 268 18 c 0
 273 13 275 6 275 0 c 0
 275 -14 264 -25 250 -25 c 0
 232 -25 212 -15 187 17 c 0
 102 111 72 312 19 365 c 0
 11 373 5 375 0 375 c 0
 -14 375 -25 386 -25 400 c 0
 -25 414 -14 425 0 425 c 0
EndSplineSet
Validated: 1
EndChar

StartChar: t
Encoding: 116 116 21
Width: 400
Flags: W
HStem: 375 50<-24.8024 54.2834 345.717 424.802> 805 20G<294.5 307>
VStem: 75 48<-24.8024 -9>
LayerCount: 2
Fore
SplineSet
300 825 m 0
 314 825 325 814 325 800 c 0
 325 797 324 794 323 791 c 0
 322 787 233 549 120 436 c 0
 85 402 45 375 -0 375 c 0
 -14 375 -25 386 -25 400 c 0
 -25 414 -14 425 0 425 c 0
 57 425 132 508 207 655 c 0
 250 737 277 809 277 809 c 2
 280 818 289 825 300 825 c 0
100 -25 m 0
 86 -25 75 -14 75 0 c 0
 75 3 76 6 77 9 c 0
 78 13 167 251 280 364 c 0
 315 398 355 425 400 425 c 0
 414 425 425 414 425 400 c 0
 425 386 414 375 400 375 c 0
 343 375 268 292 193 145 c 0
 150 63 123 -9 123 -9 c 2
 120 -18 111 -25 100 -25 c 0
EndSplineSet
Validated: 1
EndChar

StartChar: u
Encoding: 117 117 22
Width: 400
Flags: W
HStem: -25 50<128.064 179.039> 375 50<-24.8024 19.5696 326.079 424.802> 414 50<177.719 273.556> 775 50<159.587 226.892>
VStem: 74 50<25.9924 275.096> 275 50<208.297 383 449 645.475>
LayerCount: 2
Fore
SplineSet
144 -25 m 0xdc
 112 -25 74 1 74 78 c 0
 74 97 87 259 109 349 c 0
 123 403 145 464 207 464 c 0xbc
 230 464 253 456 275 449 c 1
 274 513 270 643 243 720 c 0
 235 744 221 775 200 775 c 0
 187 775 155 774 129 693 c 0
 95 589 94 444 44 394 c 0
 33 383 18 375 -0 375 c 0
 -14 375 -25 386 -25 400 c 0
 -25 414 -14 425 0 425 c 0
 14 425 26 460 29 473 c 0
 48 534 57 632 81 708 c 0
 90 736 119 825 200 825 c 0
 297 825 323 651 325 435 c 1
 348 429 372 425 400 425 c 0
 414 425 425 414 425 400 c 0
 425 386 414 375 400 375 c 0
 372 375 347 379 325 383 c 1
 321 120 223 -25 144 -25 c 0xdc
275 397 m 1
 235 409 221 414 207 414 c 0
 198 414 192 411 187 406 c 0
 155 374 138 244 125 98 c 0
 124 91 124 84 124 78 c 0
 124 49 131 25 144 25 c 0
 181 25 274 137 275 397 c 1
EndSplineSet
Validated: 1
EndChar

StartChar: v
Encoding: 118 118 23
Width: 400
Flags: W
HStem: -25 50<176.568 235.685> 375 50<-24.8024 23.2419 371.313 424.802> 805 20G<143 159 343 357> 905 20G<343 357>
VStem: 275 50<183.806 426.578> 325 50<675.198 924.802>
LayerCount: 2
Fore
SplineSet
400 375 m 0xf8
 375 375 348 389 324 427 c 1
 325 418 325 409 325 400 c 0
 325 398 325 395 325 393 c 0
 325 216 324 62 263 1 c 0
 247 -15 225 -25 200 -25 c 0
 146 -25 121 43 111 70 c 0
 77 164 53 328 13 368 c 0
 7 374 3 375 -0 375 c 0
 -14 375 -25 386 -25 400 c 0
 -25 414 -14 425 0 425 c 0
 54 425 79 357 89 330 c 0
 103 293 113 249 124 206 c 0
 141 138 161 58 187 32 c 0
 193 26 197 25 200 25 c 0
 213 25 250 26 266 150 c 0
 275 219 275 309 275 400 c 0
 275 488 254 578 228 648 c 0
 211 692 191 729 174 752 c 0
 152 775 139 775 132 782 c 0
 127 787 125 794 125 800 c 0
 125 814 136 825 150 825 c 0
 168 825 188 815 213 783 c 0
 298 689 328 488 381 435 c 0
 389 427 395 425 400 425 c 0
 414 425 425 414 425 400 c 0
 425 386 414 375 400 375 c 0xf8
350 675 m 0
 336 675 325 686 325 700 c 2
 325 900 l 2
 325 914 336 925 350 925 c 0
 364 925 375 914 375 900 c 2
 375 700 l 2xf4
 375 686 364 675 350 675 c 0
EndSplineSet
Validated: 1
EndChar

StartChar: w
Encoding: 119 119 24
Width: 400
Flags: W
HStem: 375 50<-24.8024 33.4297 228.004 424.802> 525 50<168 374.802> 802 20G<312 322> 802 20G<312 322>
LayerCount: 2
Fore
SplineSet
111 490 m 1xe0
 77 414 59 375 -0 375 c 0
 -14 375 -25 386 -25 400 c 0
 -25 414 -14 425 0 425 c 0
 70 425 40 599 299 816 c 0
 304 820 309 822 315 822 c 0
 329 822 340 811 340 797 c 0
 340 790 337 783 331 778 c 0
 299 750 202 657 168 575 c 1
 350 575 l 2
 364 575 375 564 375 550 c 0
 375 536 364 525 350 525 c 2
 156 525 l 2
 156 524 156 524 156 523 c 0
 156 443 286 425 400 425 c 0
 414 425 425 414 425 400 c 0
 425 386 414 375 400 375 c 0
 285 375 139 391 111 490 c 1xe0
EndSplineSet
Validated: 1
EndChar

StartChar: x
Encoding: 120 120 25
Width: 400
Flags: W
HStem: 375 50<-24.8024 23.2419 371.313 424.802> 775 50<176.568 235.685>
VStem: 275 50<373.422 616.194>
LayerCount: 2
Fore
SplineSet
400 425 m 0
 414 425 425 414 425 400 c 0
 425 386 414 375 400 375 c 0
 395 375 389 373 381 365 c 0
 328 312 298 111 213 17 c 0
 188 -15 168 -25 150 -25 c 0
 136 -25 125 -14 125 0 c 0
 125 6 127 13 132 18 c 0
 139 25 152 25 174 48 c 0
 191 71 211 108 228 152 c 0
 254 222 275 312 275 400 c 0
 275 491 275 581 266 650 c 0
 250 774 213 775 200 775 c 0
 197 775 193 774 187 768 c 0
 161 742 141 662 124 594 c 0
 113 551 103 507 89 470 c 0
 79 443 54 375 0 375 c 0
 -14 375 -25 386 -25 400 c 0
 -25 414 -14 425 -0 425 c 0
 3 425 7 426 13 432 c 0
 53 472 77 636 111 730 c 0
 121 757 146 825 200 825 c 0
 225 825 247 815 263 799 c 0
 324 738 325 584 325 407 c 0
 325 405 325 402 325 400 c 0
 325 391 325 382 324 373 c 1
 348 411 375 425 400 425 c 0
EndSplineSet
Validated: 1
EndChar

StartChar: z
Encoding: 122 122 27
Width: 400
Flags: W
HStem: 375 50<-24.8024 28.687 376.758 424.802> 775 50<164.315 223.432> 905 20G<343 357> 905 20G<343 357>
VStem: 75 50<373.422 616.194> 325 50<675.198 924.802>
LayerCount: 2
Fore
SplineSet
0 425 m 0xcc
 25 425 52 411 76 373 c 1
 75 382 75 391 75 400 c 0
 75 402 75 405 75 407 c 0
 75 584 76 738 137 799 c 0
 153 815 175 825 200 825 c 0
 254 825 279 757 289 730 c 0
 323 636 347 472 387 432 c 0
 393 426 397 425 400 425 c 0
 414 425 425 414 425 400 c 0
 425 386 414 375 400 375 c 0
 346 375 321 443 311 470 c 0
 297 507 287 551 276 594 c 0
 259 662 239 742 213 768 c 0
 207 774 203 775 200 775 c 0
 187 775 150 774 134 650 c 0
 125 581 125 491 125 400 c 0
 125 312 146 222 172 152 c 0
 189 108 209 71 226 48 c 0
 248 25 261 25 268 18 c 0
 273 13 275 6 275 0 c 0
 275 -14 264 -25 250 -25 c 0
 232 -25 212 -15 187 17 c 0
 102 111 72 312 19 365 c 0
 11 373 5 375 0 375 c 0
 -14 375 -25 386 -25 400 c 0
 -25 414 -14 425 0 425 c 0xcc
350 675 m 0
 336 675 325 686 325 700 c 2
 325 900 l 2
 325 914 336 925 350 925 c 0xec
 364 925 375 914 375 900 c 2
 375 700 l 2
 375 686 364 675 350 675 c 0
EndSplineSet
Validated: 1
EndChar

StartChar: one
Encoding: 49 49 29
Width: 250
Flags: W
HStem: 375 21G<-7 6.5> 805 20G<243.5 257>
VStem: -25 300
LayerCount: 2
Fore
SplineSet
0 375 m 0
 -14 375 -25 386 -25 400 c 0
 -25 405 -24 409 -21 413 c 2
 229 813 l 2
 230 816 237 825 250 825 c 0
 264 825 275 814 275 800 c 0
 275 795 274 791 271 787 c 2
 21 387 l 2
 20 384 13 375 0 375 c 0
EndSplineSet
Validated: 1
EndChar

StartChar: two
Encoding: 50 50 30
Width: 250
Flags: W
HStem: 375 21G<248.5 257> 805 20G<-7 1.5>
VStem: -25 300
LayerCount: 2
Fore
SplineSet
106 751 m 1053
275 400 m 0
 275 386 264 375 250 375 c 0
 247 375 236 376 229 387 c 2
 -21 787 l 2
 -24 791 -25 795 -25 800 c 0
 -25 814 -14 825 0 825 c 0
 3 825 14 824 21 813 c 2
 271 413 l 2
 274 409 275 405 275 400 c 0
EndSplineSet
Validated: 1
EndChar

StartChar: three
Encoding: 51 51 31
Width: 250
Flags: W
VStem: -25 300
LayerCount: 2
Fore
SplineSet
0 -25 m 0
 -14 -25 -25 -14 -25 0 c 0
 -25 5 -24 9 -21 13 c 2
 229 413 l 2
 230 416 237 425 250 425 c 0
 264 425 275 414 275 400 c 0
 275 395 274 391 271 387 c 2
 21 -13 l 2
 20 -16 13 -25 0 -25 c 0
EndSplineSet
Validated: 1
EndChar

StartChar: four
Encoding: 52 52 32
Width: 250
Flags: W
VStem: -25 300
LayerCount: 2
Fore
SplineSet
108 207 m 1053
275 0 m 0
 275 -14 264 -25 250 -25 c 0
 247 -25 236 -24 229 -13 c 2
 -21 387 l 2
 -24 391 -25 395 -25 400 c 0
 -25 414 -14 425 0 425 c 0
 3 425 14 424 21 413 c 2
 271 13 l 2
 274 9 275 5 275 0 c 0
EndSplineSet
Validated: 1
EndChar

StartChar: five
Encoding: 53 53 33
Width: 500
Flags: W
HStem: 375 50<-24.8024 524.802>
LayerCount: 2
Fore
SplineSet
234 235 m 1053
525 400 m 0
 525 386 514 375 500 375 c 2
 0 375 l 2
 -14 375 -25 386 -25 400 c 0
 -25 414 -14 425 0 425 c 2
 500 425 l 2
 514 425 525 414 525 400 c 0
EndSplineSet
Validated: 1
EndChar

StartChar: zero
Encoding: 48 48 34
Width: 600
Flags: W
HStem: 375 21G<43 56.5> 805 20G<293.5 307>
VStem: 275 50<87 713>
LayerCount: 2
Fore
SplineSet
300 825 m 0
 314 825 325 814 325 800 c 2
 325 87 l 1
 529 413 l 2
 530 416 537 425 550 425 c 0
 564 425 575 414 575 400 c 0
 575 395 574 391 571 387 c 2
 321 -13 l 2
 320 -16 313 -25 300 -25 c 0
 286 -25 275 -14 275 0 c 2
 275 713 l 1
 71 387 l 2
 70 384 63 375 50 375 c 0
 36 375 25 386 25 400 c 0
 25 405 26 409 29 413 c 2
 279 813 l 2
 280 816 287 825 300 825 c 0
EndSplineSet
Validated: 1
EndChar

StartChar: period
Encoding: 46 46 35
Width: 150
Flags: W
HStem: -105 130
VStem: 50 100
LayerCount: 2
Fore
SplineSet
150 -80 m 0
 150 -94 139 -105 125 -105 c 0
 122 -105 111 -104 104 -93 c 2
 54 -13 l 2
 51 -9 50 -5 50 0 c 0
 50 14 61 25 75 25 c 0
 78 25 89 24 96 13 c 2
 146 -67 l 2
 149 -71 150 -75 150 -80 c 0
EndSplineSet
Validated: 1
EndChar

StartChar: comma
Encoding: 44 44 36
Width: 150
Flags: W
HStem: -105 130
VStem: 0 100
LayerCount: 2
Fore
SplineSet
75 25 m 0
 89 25 100 14 100 0 c 0
 100 -5 99 -9 96 -13 c 0
 45 -96 45 -96 43 -98 c 0
 38 -103 31 -105 25 -105 c 0
 11 -105 0 -94 0 -80 c 0
 0 -75 1 -71 4 -67 c 0
 55 16 55 16 57 18 c 0
 62 23 69 25 75 25 c 0
EndSplineSet
Validated: 1
EndChar

StartChar: exclam
Encoding: 33 33 37
Width: 400
Flags: W
HStem: 375 50<120 300> 805 20G<318.5 332>
VStem: 300 50<-24.8024 375 425 713>
LayerCount: 2
Fore
SplineSet
1005 905 m 1049
325 -25 m 0
 311 -25 300 -14 300 0 c 2
 300 375 l 1
 75 375 l 2
 61 375 50 386 50 400 c 0
 50 405 51 409 54 413 c 2
 304 813 l 2
 305 816 312 825 325 825 c 0
 339 825 350 814 350 800 c 2
 350 0 l 2
 350 -14 339 -25 325 -25 c 0
300 425 m 1
 300 713 l 1
 120 425 l 1
 300 425 l 1
EndSplineSet
Validated: 1
EndChar

StartChar: question
Encoding: 63 63 38
Width: 400
Flags: W
HStem: 375 50<100 280> 805 20G<68 81.5>
VStem: 50 50<-24.8024 375 425 713>
LayerCount: 2
Fore
SplineSet
75 -25 m 0
 61 -25 50 -14 50 0 c 2
 50 800 l 2
 50 814 61 825 75 825 c 0
 88 825 95 816 96 813 c 2
 346 413 l 2
 349 409 350 405 350 400 c 0
 350 386 339 375 325 375 c 2
 100 375 l 1
 100 0 l 2
 100 -14 89 -25 75 -25 c 0
100 425 m 1
 280 425 l 1
 100 713 l 1
 100 425 l 1
EndSplineSet
Validated: 1
EndChar

StartChar: plus
Encoding: 43 43 39
Width: 600
Flags: W
HStem: 375 50<25.1976 275 325 574.802> 805 20G<293 307>
VStem: 275 50<425 824.802>
LayerCount: 2
Fore
SplineSet
275 800 m 2
 275 814 286 825 300 825 c 0
 314 825 325 814 325 800 c 2
 325 425 l 1
 550 425 l 2
 564 425 575 414 575 400 c 0
 575 386 564 375 550 375 c 0
 50 375 50 375 50 375 c 2
 36 375 25 386 25 400 c 0
 25 414 36 425 50 425 c 2
 275 425 l 1
 275 800 l 2
EndSplineSet
Validated: 1
EndChar

StartChar: hyphen
Encoding: 45 45 40
Width: 600
Flags: W
HStem: 375 50<25.1976 275 325 574.802>
VStem: 275 50<-24.8024 375>
LayerCount: 2
Fore
SplineSet
275 0 m 2
 275 375 l 1
 50 375 l 2
 36 375 25 386 25 400 c 0
 25 414 36 425 50 425 c 2
 50 425 50 425 550 425 c 0
 564 425 575 414 575 400 c 0
 575 386 564 375 550 375 c 2
 325 375 l 1
 325 0 l 2
 325 -14 314 -25 300 -25 c 0
 286 -25 275 -14 275 0 c 2
EndSplineSet
Validated: 1
EndChar

StartChar: asterisk
Encoding: 42 42 41
Width: 400
Flags: W
HStem: 375 50<100 349.802> 805 20G<68 82>
VStem: 50 50<-24.8024 375 425 824.802>
LayerCount: 2
Fore
SplineSet
75 825 m 0
 89 825 100 814 100 800 c 2
 100 425 l 1
 325 425 l 2
 339 425 350 414 350 400 c 0
 350 386 339 375 325 375 c 2
 100 375 l 1
 100 0 l 2
 100 -14 89 -25 75 -25 c 0
 61 -25 50 -14 50 0 c 0
 50 800 50 800 50 800 c 2
 50 814 61 825 75 825 c 0
EndSplineSet
Validated: 1
EndChar

StartChar: slash
Encoding: 47 47 42
Width: 400
Flags: W
HStem: 375 50<50.1976 300> 805 20G<318 332>
VStem: 300 50<-24.8024 375 425 824.802>
LayerCount: 2
Fore
SplineSet
325 825 m 0
 339 825 350 814 350 800 c 2
 350 800 350 800 350 0 c 0
 350 -14 339 -25 325 -25 c 0
 311 -25 300 -14 300 0 c 2
 300 375 l 1
 75 375 l 2
 61 375 50 386 50 400 c 0
 50 414 61 425 75 425 c 2
 300 425 l 1
 300 800 l 2
 300 814 311 825 325 825 c 0
EndSplineSet
Validated: 1
EndChar

StartChar: quotesingle
Encoding: 39 39 43
Width: 100
Flags: W
HStem: 675 250<0.197601 49.8024>
VStem: 0 50<675.198 924.802>
LayerCount: 2
Fore
SplineSet
25 675 m 0
 11 675 0 686 0 700 c 2
 0 900 l 2
 0 914 11 925 25 925 c 0
 39 925 50 914 50 900 c 2
 50 700 l 2
 50 686 39 675 25 675 c 0
EndSplineSet
Validated: 1
EndChar

StartChar: equal
Encoding: 61 61 44
Width: 600
Flags: W
HStem: 375 50<25.1976 275 325 574.802> 805 20G<293 307>
VStem: 275 50<-24.8024 375 425 824.802>
LayerCount: 2
Fore
SplineSet
300 825 m 0
 314 825 325 814 325 800 c 2
 325 425 l 1
 550 425 l 2
 564 425 575 414 575 400 c 0
 575 386 564 375 550 375 c 2
 325 375 l 1
 325 0 l 2
 325 -14 314 -25 300 -25 c 0
 286 -25 275 -14 275 0 c 2
 275 375 l 1
 50 375 l 2
 36 375 25 386 25 400 c 0
 25 414 36 425 50 425 c 2
 275 425 l 5
 275 800 l 6
 275 814 286 825 300 825 c 0
EndSplineSet
Validated: 1
EndChar

StartChar: bar
Encoding: 124 124 45
Width: 150
Flags: W
HStem: 805 20G<68 82>
VStem: 50 50<-24.8024 824.802>
LayerCount: 2
Fore
SplineSet
75 -25 m 0
 61 -25 50 -14 50 0 c 2
 50 800 l 2
 50 814 61 825 75 825 c 0
 89 825 100 814 100 800 c 2
 100 0 l 2
 100 -14 89 -25 75 -25 c 0
EndSplineSet
Validated: 1
EndChar

StartChar: C
Encoding: 67 67 95
Width: 600
Flags: W
HStem: 805 20G<301.5 315>
LayerCount: 2
Fore
SplineSet
263 714 m 1053
550 425 m 0
 564 425 575 414 575 400 c 0
 575 395 574 391 571 387 c 2
 321 -13 l 2
 320 -16 313 -25 300 -25 c 0
 297 -25 286 -24 279 -13 c 2
 29 387 l 2
 26 391 25 395 25 400 c 0
 25 405 26 409 29 414 c 2
 287 814 l 2
 289 816 295 825 308 825 c 0
 322 825 333 814 333 800 c 0
 333 795 332 791 329 786 c 2
 80 400 l 1
 300 47 l 1
 529 413 l 2
 530 416 537 425 550 425 c 0
EndSplineSet
Validated: 1
EndChar

StartChar: D
Encoding: 68 68 96
Width: 600
Flags: W
HStem: 375 21G<43 56.5> 805 20G<293.5 307 543 557> 905 20G<543 557>
VStem: 525 50<675.198 924.802>
LayerCount: 2
Fore
SplineSet
300 -25 m 0
 286 -25 275 -14 275 0 c 0
 275 5 276 9 279 13 c 2
 529 413 l 2
 530 416 537 425 550 425 c 0
 564 425 575 414 575 400 c 0
 575 395 574 391 571 387 c 2
 321 -13 l 2
 320 -16 313 -25 300 -25 c 0
50 375 m 0
 36 375 25 386 25 400 c 0
 25 405 26 409 29 413 c 2
 279 813 l 2
 280 816 287 825 300 825 c 0
 314 825 325 814 325 800 c 0
 325 795 324 791 321 787 c 2
 71 387 l 2
 70 384 63 375 50 375 c 0
550 675 m 0
 536 675 525 686 525 700 c 2
 525 900 l 2
 525 914 536 925 550 925 c 0
 564 925 575 914 575 900 c 2
 575 700 l 2
 575 686 564 675 550 675 c 0
EndSplineSet
Validated: 1
EndChar

StartChar: E
Encoding: 69 69 97
Width: 600
Flags: W
HStem: 375 50<25.1976 505> 805 20G<293 301.5>
LayerCount: 2
Fore
SplineSet
267 758 m 1053
575 400 m 0
 575 386 564 375 550 375 c 2
 50 375 l 2
 36 375 25 386 25 400 c 0
 25 414 36 425 50 425 c 2
 505 425 l 1
 279 787 l 2
 276 791 275 795 275 800 c 0
 275 814 286 825 300 825 c 0
 303 825 314 824 321 813 c 2
 571 413 l 2
 574 409 575 405 575 400 c 0
EndSplineSet
Validated: 1
EndChar

StartChar: F
Encoding: 70 70 98
Width: 600
Flags: W
HStem: 805 20G<293 301.5>
LayerCount: 2
Fore
SplineSet
275 800 m 0
 275 814 286 825 300 825 c 0
 303 825 314 824 321 813 c 2
 571 413 l 2
 574 409 575 405 575 400 c 0
 575 395 574 391 571 387 c 2
 321 -13 l 2
 320 -16 313 -25 300 -25 c 0
 297 -25 286 -24 279 -13 c 2
 29 387 l 2
 26 391 25 395 25 400 c 0
 25 414 36 425 50 425 c 0
 53 425 64 424 71 413 c 2
 300 47 l 1
 521 400 l 1
 279 787 l 2
 276 791 275 795 275 800 c 0
EndSplineSet
Validated: 1
EndChar

StartChar: G
Encoding: 71 71 99
Width: 500
Flags: W
HStem: 805 20G<293.5 307 443 457> 905 20G<443 457>
VStem: 425 50<675.198 924.802>
LayerCount: 2
Fore
SplineSet
325 0 m 0
 325 -14 314 -25 300 -25 c 0
 297 -25 286 -24 279 -13 c 2
 29 387 l 2
 26 391 25 395 25 400 c 0
 25 405 26 409 29 413 c 2
 279 813 l 2
 280 816 287 825 300 825 c 0
 314 825 325 814 325 800 c 0
 325 795 324 791 321 787 c 2
 79 400 l 1
 321 13 l 2
 324 9 325 5 325 0 c 0
450 675 m 0
 436 675 425 686 425 700 c 2
 425 900 l 2
 425 914 436 925 450 925 c 0
 464 925 475 914 475 900 c 2
 475 700 l 2
 475 686 464 675 450 675 c 0
EndSplineSet
Validated: 1
EndChar

StartChar: H
Encoding: 72 72 100
Width: 600
Flags: W
HStem: 805 20G<293.5 301.5>
LayerCount: 2
Fore
SplineSet
521 400 m 1
 300 753 l 1
 79 400 l 1
 300 47 l 1
 521 400 l 1
575 400 m 0
 575 395 574 391 571 387 c 2
 321 -13 l 2
 320 -16 313 -25 300 -25 c 0
 297 -25 286 -24 279 -13 c 0
 29 387 29 387 29 387 c 2
 26 391 25 395 25 400 c 0
 25 405 26 409 29 413 c 2
 279 813 l 2
 280 816 287 825 300 825 c 0
 303 825 314 824 321 813 c 2
 571 413 l 2
 574 409 575 405 575 400 c 0
EndSplineSet
Validated: 1
EndChar

StartChar: J
Encoding: 74 74 102
Width: 600
Flags: W
HStem: 805 20G<293.5 307 543 557> 905 20G<543 557>
VStem: 525 50<675.198 924.802>
LayerCount: 2
Fore
SplineSet
550 425 m 0
 564 425 575 414 575 400 c 0
 575 395 574 391 571 387 c 2
 321 -13 l 2
 320 -16 313 -25 300 -25 c 0
 297 -25 286 -24 279 -13 c 2
 29 387 l 2
 26 391 25 395 25 400 c 0
 25 405 26 409 29 413 c 2
 279 813 l 2
 280 816 287 825 300 825 c 0
 314 825 325 814 325 800 c 0
 325 795 324 791 321 787 c 2
 79 400 l 1
 300 47 l 1
 529 413 l 2
 530 416 537 425 550 425 c 0
550 675 m 0
 536 675 525 686 525 700 c 2
 525 900 l 2
 525 914 536 925 550 925 c 0
 564 925 575 914 575 900 c 2
 575 700 l 2
 575 686 564 675 550 675 c 0
EndSplineSet
Validated: 1
EndChar

StartChar: K
Encoding: 75 75 103
Width: 350
Flags: W
HStem: 805 20G<293.5 307>
VStem: 25 300
LayerCount: 2
Fore
SplineSet
325 0 m 0
 325 -14 314 -25 300 -25 c 0
 297 -25 286 -24 279 -13 c 2
 29 387 l 2
 26 391 25 395 25 400 c 0
 25 405 26 409 29 413 c 2
 279 813 l 2
 280 816 287 825 300 825 c 0
 314 825 325 814 325 800 c 0
 325 795 324 791 321 787 c 2
 79 400 l 1
 321 13 l 2
 324 9 325 5 325 0 c 0
EndSplineSet
Validated: 1
EndChar

StartChar: L
Encoding: 76 76 104
Width: 600
Flags: W
HStem: 805 20G<293.5 301.5 543 557> 905 20G<543 557>
VStem: 525 50<675.198 924.802>
LayerCount: 2
Fore
SplineSet
575 400 m 0
 575 395 574 391 571 387 c 2
 321 -13 l 2
 320 -16 313 -25 300 -25 c 0
 297 -25 286 -24 279 -13 c 0
 29 387 29 387 29 387 c 2
 26 391 25 395 25 400 c 0
 25 405 26 409 29 413 c 2
 279 813 l 2
 280 816 287 825 300 825 c 0
 303 825 314 824 321 813 c 2
 571 413 l 2
 574 409 575 405 575 400 c 0
521 400 m 1
 300 753 l 1
 79 400 l 1
 300 47 l 1
 521 400 l 1
550 675 m 0
 536 675 525 686 525 700 c 2
 525 900 l 2
 525 914 536 925 550 925 c 0
 564 925 575 914 575 900 c 2
 575 700 l 2
 575 686 564 675 550 675 c 0
EndSplineSet
Validated: 1
EndChar

StartChar: M
Encoding: 77 77 105
Width: 350
Flags: W
HStem: 805 20G<43 51.5>
VStem: 25 300
LayerCount: 2
Fore
SplineSet
138 721 m 1053
50 -25 m 0
 36 -25 25 -14 25 0 c 0
 25 5 26 9 29 13 c 2
 271 400 l 1
 29 787 l 2
 26 791 25 795 25 800 c 0
 25 814 36 825 50 825 c 0
 53 825 64 824 71 813 c 2
 321 413 l 2
 324 409 325 405 325 400 c 0
 325 395 324 391 321 387 c 2
 71 -13 l 2
 70 -16 63 -25 50 -25 c 0
EndSplineSet
Validated: 1
EndChar

StartChar: N
Encoding: 78 78 106
Width: 600
Flags: W
HStem: 375 21G<548.5 557> 805 20G<293 301.5>
LayerCount: 2
Fore
SplineSet
575 400 m 0
 575 386 564 375 550 375 c 0
 547 375 536 376 529 387 c 2
 279 787 l 2
 276 791 275 795 275 800 c 0
 275 814 286 825 300 825 c 0
 303 825 314 824 321 813 c 2
 571 413 l 2
 574 409 575 405 575 400 c 0
325 0 m 0
 325 -14 314 -25 300 -25 c 0
 297 -25 286 -24 279 -13 c 2
 29 387 l 2
 26 391 25 395 25 400 c 0
 25 414 36 425 50 425 c 0
 53 425 64 424 71 413 c 2
 321 13 l 2
 324 9 325 5 325 0 c 0
EndSplineSet
Validated: 1
EndChar

StartChar: O
Encoding: 79 79 107
Width: 600
Flags: W
HStem: 375 50<25.1976 505>
LayerCount: 2
Fore
SplineSet
281 208 m 1053
300 -25 m 0
 286 -25 275 -14 275 0 c 0
 275 5 276 9 279 13 c 2
 505 375 l 1
 50 375 l 2
 36 375 25 386 25 400 c 0
 25 414 36 425 50 425 c 2
 550 425 l 2
 564 425 575 414 575 400 c 0
 575 395 574 391 571 387 c 2
 321 -13 l 2
 320 -16 313 -25 300 -25 c 0
EndSplineSet
Validated: 1
EndChar

StartChar: P
Encoding: 80 80 108
Width: 600
Flags: W
HStem: 375 21G<43 56.5 548.5 557> 805 20G<293.5 301.5>
LayerCount: 2
Fore
SplineSet
575 400 m 0
 575 386 564 375 550 375 c 0
 547 375 536 376 529 387 c 2
 300 753 l 1
 71 387 l 2
 70 384 63 375 50 375 c 0
 36 375 25 386 25 400 c 0
 25 405 26 409 29 413 c 2
 279 813 l 2
 280 816 287 825 300 825 c 0
 303 825 314 824 321 813 c 2
 571 413 l 2
 574 409 575 405 575 400 c 0
EndSplineSet
Validated: 1
EndChar

StartChar: Q
Encoding: 81 81 109
Width: 600
Flags: W
LayerCount: 2
Fore
SplineSet
550 425 m 0
 564 425 575 414 575 400 c 0
 575 395 574 391 571 387 c 2
 321 -13 l 2
 320 -16 313 -25 300 -25 c 0
 297 -25 286 -24 279 -13 c 2
 29 387 l 2
 26 391 25 395 25 400 c 0
 25 414 36 425 50 425 c 0
 53 425 64 424 71 413 c 2
 300 47 l 1
 529 413 l 2
 530 416 537 425 550 425 c 0
EndSplineSet
Validated: 1
EndChar

StartChar: R
Encoding: 82 82 110
Width: 600
Flags: W
HStem: 375 21G<43 56.5> 805 20G<293.5 301.5 543 557> 905 20G<543 557>
VStem: 525 50<675.198 924.802>
LayerCount: 2
Fore
SplineSet
254 709 m 1053
300 -25 m 0
 286 -25 275 -14 275 0 c 0
 275 5 276 9 279 13 c 2
 521 400 l 1
 300 753 l 1
 71 387 l 2
 70 384 63 375 50 375 c 0
 36 375 25 386 25 400 c 0
 25 405 26 409 29 413 c 2
 279 813 l 2
 280 816 287 825 300 825 c 0
 303 825 314 824 321 813 c 2
 571 413 l 2
 574 409 575 405 575 400 c 0
 575 395 574 391 571 387 c 2
 321 -13 l 2
 320 -16 313 -25 300 -25 c 0
550 675 m 0
 536 675 525 686 525 700 c 2
 525 900 l 2
 525 914 536 925 550 925 c 0
 564 925 575 914 575 900 c 2
 575 700 l 2
 575 686 564 675 550 675 c 0
EndSplineSet
Validated: 1
EndChar

StartChar: S
Encoding: 83 83 111
Width: 600
Flags: W
HStem: 375 21G<548.5 557> 805 20G<293.5 301.5>
LayerCount: 2
Fore
SplineSet
575 400 m 0
 575 386 564 375 550 375 c 0
 547 375 536 376 529 387 c 2
 300 753 l 1
 79 400 l 1
 321 13 l 2
 324 9 325 5 325 0 c 0
 325 -14 314 -25 300 -25 c 0
 297 -25 286 -24 279 -13 c 2
 29 387 l 2
 26 391 25 395 25 400 c 0
 25 405 26 409 29 413 c 2
 279 813 l 2
 280 816 287 825 300 825 c 0
 303 825 314 824 321 813 c 2
 571 413 l 2
 574 409 575 405 575 400 c 0
EndSplineSet
Validated: 1
EndChar

StartChar: T
Encoding: 84 84 112
Width: 600
Flags: W
HStem: 375 21G<43 56.5> 805 20G<293.5 307>
LayerCount: 2
Fore
SplineSet
50 375 m 0
 36 375 25 386 25 400 c 0
 25 405 26 409 29 413 c 2
 279 813 l 2
 280 816 287 825 300 825 c 0
 314 825 325 814 325 800 c 0
 325 795 324 791 321 787 c 2
 71 387 l 2
 70 384 63 375 50 375 c 0
300 -25 m 0
 286 -25 275 -14 275 0 c 0
 275 5 276 9 279 13 c 2
 529 413 l 2
 530 416 537 425 550 425 c 0
 564 425 575 414 575 400 c 0
 575 395 574 391 571 387 c 2
 321 -13 l 2
 320 -16 313 -25 300 -25 c 0
EndSplineSet
Validated: 1
EndChar

StartChar: U
Encoding: 85 85 113
Width: 600
Flags: W
HStem: 375 50<95 574.802>
LayerCount: 2
Fore
SplineSet
279 206 m 1053
25 400 m 0
 25 414 36 425 50 425 c 2
 550 425 l 2
 564 425 575 414 575 400 c 0
 575 386 564 375 550 375 c 2
 95 375 l 1
 321 13 l 2
 324 9 325 5 325 0 c 0
 325 -14 314 -25 300 -25 c 0
 297 -25 286 -24 279 -13 c 2
 29 387 l 2
 26 391 25 395 25 400 c 0
EndSplineSet
Validated: 1
EndChar

StartChar: V
Encoding: 86 86 114
Width: 600
Flags: W
HStem: 805 20G<293 301.5 543 557> 905 20G<543 557>
VStem: 525 50<675.198 924.802>
LayerCount: 2
Fore
SplineSet
267 710 m 1053
275 800 m 0
 275 814 286 825 300 825 c 0
 303 825 314 824 321 813 c 2
 571 413 l 2
 574 409 575 405 575 400 c 0
 575 395 574 391 571 387 c 2
 321 -13 l 2
 320 -16 313 -25 300 -25 c 0
 297 -25 286 -24 279 -13 c 2
 29 387 l 2
 26 391 25 395 25 400 c 0
 25 414 36 425 50 425 c 0
 53 425 64 424 71 413 c 2
 300 47 l 1
 521 400 l 1
 279 787 l 2
 276 791 275 795 275 800 c 0
550 675 m 0
 536 675 525 686 525 700 c 2
 525 900 l 2
 525 914 536 925 550 925 c 0
 564 925 575 914 575 900 c 2
 575 700 l 2
 575 686 564 675 550 675 c 0
EndSplineSet
Validated: 1
EndChar

StartChar: W
Encoding: 87 87 115
Width: 600
Flags: W
HStem: 375 50<95 574.802> 805 20G<293.5 307>
LayerCount: 2
Fore
SplineSet
300 825 m 0
 314 825 325 814 325 800 c 0
 325 795 324 791 321 787 c 2
 95 425 l 1
 550 425 l 2
 564 425 575 414 575 400 c 0
 575 386 564 375 550 375 c 2
 95 375 l 1
 321 13 l 2
 324 9 325 5 325 0 c 0
 325 -14 314 -25 300 -25 c 0
 297 -25 286 -24 279 -13 c 2
 29 387 l 2
 26 391 25 395 25 400 c 0
 25 405 26 409 29 413 c 2
 279 813 l 2
 280 816 287 825 300 825 c 0
EndSplineSet
Validated: 1
EndChar

StartChar: X
Encoding: 88 88 116
Width: 600
Flags: W
HStem: 375 21G<43 56.5> 805 20G<293.5 301.5>
LayerCount: 2
Fore
SplineSet
300 -25 m 0
 286 -25 275 -14 275 0 c 0
 275 5 276 9 279 13 c 2
 521 400 l 1
 300 753 l 1
 71 387 l 2
 70 384 63 375 50 375 c 0
 36 375 25 386 25 400 c 0
 25 405 26 409 29 413 c 2
 279 813 l 2
 280 816 287 825 300 825 c 0
 303 825 314 824 321 813 c 2
 571 413 l 2
 574 409 575 405 575 400 c 0
 575 395 574 391 571 387 c 2
 321 -13 l 2
 320 -16 313 -25 300 -25 c 0
EndSplineSet
Validated: 1
EndChar

StartChar: Z
Encoding: 90 90 118
Width: 600
Flags: W
HStem: 375 21G<548.5 557> 805 20G<293.5 301.5 543 557> 905 20G<543 557>
VStem: 525 50<675.198 924.802>
LayerCount: 2
Fore
SplineSet
247 713 m 1053
575 400 m 0
 575 386 564 375 550 375 c 0
 547 375 536 376 529 387 c 2
 300 753 l 1
 79 400 l 1
 321 13 l 2
 324 9 325 5 325 0 c 0
 325 -14 314 -25 300 -25 c 0
 297 -25 286 -24 279 -13 c 2
 29 387 l 2
 26 391 25 395 25 400 c 0
 25 405 26 409 29 413 c 2
 279 813 l 2
 280 816 287 825 300 825 c 0
 303 825 314 824 321 813 c 2
 571 413 l 2
 574 409 575 405 575 400 c 0
550 675 m 0
 536 675 525 686 525 700 c 2
 525 900 l 2
 525 914 536 925 550 925 c 0
 564 925 575 914 575 900 c 2
 575 700 l 2
 575 686 564 675 550 675 c 0
EndSplineSet
Validated: 1
EndChar

StartChar: Agrave
Encoding: 192 192 192
Width: 600
Flags: W
HStem: 375 50<95 505> 805 20G<293.5 301.5>
LayerCount: 2
Fore
SplineSet
505 425 m 1
 300 753 l 1
 95 425 l 1
 505 425 l 1
50 375 m 2
 36 375 25 386 25 400 c 0
 25 405 26 409 29 413 c 2
 279 813 l 2
 280 816 287 825 300 825 c 0
 303 825 314 824 321 813 c 2
 571 413 l 2
 574 409 575 405 575 400 c 0
 575 386 564 375 550 375 c 2
 50 375 l 2
EndSplineSet
Validated: 1
EndChar

StartChar: Aacute
Encoding: 193 193 193
Width: 600
Flags: W
HStem: 375 50<95 505> 805 20G<293.5 307>
LayerCount: 2
Fore
SplineSet
274 727 m 1053
50 375 m 2
 36 375 25 386 25 400 c 0
 25 405 26 409 29 413 c 2
 279 813 l 2
 280 816 287 825 300 825 c 0
 314 825 325 814 325 800 c 0
 325 795 324 791 321 787 c 2
 95 425 l 1
 550 425 l 2
 564 425 575 414 575 400 c 0
 575 395 574 391 571 387 c 2
 321 -13 l 2
 320 -16 313 -25 300 -25 c 0
 286 -25 275 -14 275 0 c 0
 275 5 276 9 279 13 c 2
 505 375 l 1
 50 375 l 2
EndSplineSet
Validated: 1
EndChar

StartChar: Ograve
Encoding: 210 210 210
Width: 600
Flags: W
HStem: 375 50<25.1976 505> 805 20G<293 306.5>
LayerCount: 2
Fore
SplineSet
300 825 m 4
 313 825 320 816 321 813 c 6
 571 413 l 6
 574 409 575 405 575 400 c 4
 575 395 574 391 571 387 c 6
 321 -13 l 6
 314 -24 303 -25 300 -25 c 4
 286 -25 275 -14 275 0 c 4
 275 5 276 9 279 13 c 6
 505 375 l 5
 50 375 l 6
 36 375 25 386 25 400 c 4
 25 414 36 425 50 425 c 6
 505 425 l 5
 279 787 l 6
 276 791 275 795 275 800 c 4
 275 814 286 825 300 825 c 4
EndSplineSet
Validated: 1
EndChar

StartChar: Ugrave
Encoding: 217 217 217
Width: 600
Flags: W
HStem: 375 50<95 505> 805 20G<293 301.5>
LayerCount: 2
Fore
SplineSet
25 400 m 0
 25 414 36 425 50 425 c 2
 505 425 l 1
 279 787 l 2
 276 791 275 795 275 800 c 0
 275 814 286 825 300 825 c 0
 303 825 314 824 321 813 c 2
 571 413 l 2
 574 409 575 405 575 400 c 0
 575 386 564 375 550 375 c 2
 95 375 l 1
 321 13 l 2
 324 9 325 5 325 0 c 0
 325 -14 314 -25 300 -25 c 0
 297 -25 286 -24 279 -13 c 2
 29 387 l 2
 26 391 25 395 25 400 c 0
EndSplineSet
Validated: 1
EndChar

StartChar: Uacute
Encoding: 218 218 218
Width: 600
Flags: W
HStem: 375 50<95 505>
LayerCount: 2
Fore
SplineSet
505 375 m 1
 95 375 l 1
 300 47 l 1
 505 375 l 1
25 400 m 0
 25 414 36 425 50 425 c 2
 550 425 l 2
 564 425 575 414 575 400 c 0
 575 395 574 391 571 387 c 2
 321 -13 l 2
 320 -16 313 -25 300 -25 c 0
 297 -25 286 -24 279 -13 c 0
 29 387 29 387 29 387 c 2
 26 391 25 395 25 400 c 0
EndSplineSet
Validated: 1
EndChar

StartChar: agrave
Encoding: 224 224 224
Width: 400
Flags: W
HStem: 375 50<-24.8024 140.459 259.541 424.802> 775 50<144.475 255.525>
VStem: 54 50<559.08 729.374> 296 50<557.731 729.374>
LayerCount: 2
Fore
SplineSet
200 775 m 0
 138 775 104 711 104 647 c 0
 104 589 131 521 200 476 c 1
 214 485 226 495 236 505 c 0
 278 547 296 599 296 647 c 0
 296 711 262 775 200 775 c 0
150 450 m 1
 121 474 54 540 54 647 c 0
 54 746 115 825 200 825 c 0
 285 825 346 746 346 647 c 0
 346 610 336 520 250 450 c 1
 290 435 339 425 400 425 c 0
 414 425 425 414 425 400 c 0
 425 386 414 375 400 375 c 0
 318 375 252 391 200 418 c 1
 148 391 82 375 -0 375 c 0
 -14 375 -25 386 -25 400 c 0
 -25 414 -14 425 0 425 c 0
 61 425 110 435 150 450 c 1
EndSplineSet
Validated: 1
EndChar

StartChar: aacute
Encoding: 225 225 225
Width: 400
Flags: W
HStem: 375 50<-24.8024 35.6917 361.441 424.802> 805 20G<247 257>
VStem: 200 75<747.115 800.375>
LayerCount: 2
Fore
SplineSet
73 413 m 1
 52 391 28 375 -0 375 c 0
 -14 375 -25 386 -25 400 c 0
 -25 414 -14 425 0 425 c 0
 16 425 55 450 117 568 c 0
 150 630 179 700 200 749 c 0
 221 800 226 812 232 818 c 0
 237 823 244 825 250 825 c 0
 264 825 275 814 275 800 c 0
 275 797 274 793 273 790 c 0
 260 758 109 397 77 253 c 1
 152 354 269 584 324 619 c 0
 326 621 334 627 345 627 c 0
 358 627 379 618 379 588 c 0
 379 555 353 482 303 368 c 1
 335 401 367 425 400 425 c 0
 414 425 425 414 425 400 c 0
 425 386 414 375 400 375 c 0
 389 375 343 363 240 199 c 0
 184 108 133 6 122 -12 c 0
 120 -15 114 -25 100 -25 c 0
 86 -25 75 -14 75 -0 c 0
 75 4 76 8 78 11 c 0
 115 84 268 392 316 537 c 1
 240 430 130 215 76 181 c 0
 74 179 66 173 55 173 c 0
 45 173 21 179 21 215 c 0
 21 248 39 314 73 413 c 1
EndSplineSet
Validated: 1
EndChar

StartChar: ograve
Encoding: 242 242 240
Width: 400
Flags: W
HStem: 375 50<-24.8024 171.996 366.57 424.802> 525 50<25.1976 232> 802 20G<78 88> 802 20G<78 88>
LayerCount: 2
Fore
SplineSet
289 490 m 1xe0
 261 391 115 375 0 375 c 0
 -14 375 -25 386 -25 400 c 0
 -25 414 -14 425 0 425 c 0
 114 425 244 443 244 523 c 0
 244 524 244 524 244 525 c 2
 50 525 l 2
 36 525 25 536 25 550 c 0
 25 564 36 575 50 575 c 2
 232 575 l 1
 198 657 101 750 69 778 c 0
 63 783 60 790 60 797 c 0
 60 811 71 822 85 822 c 0
 91 822 96 820 101 816 c 0
 360 599 330 425 400 425 c 0
 414 425 425 414 425 400 c 0
 425 386 414 375 400 375 c 0
 341 375 323 414 289 490 c 1xe0
EndSplineSet
Validated: 1
EndChar

StartChar: ugrave
Encoding: 249 249 246
Width: 400
Flags: W
HStem: 375 50<-24.8024 38.5588 364.308 424.802> 805 20G<143 153>
VStem: 125 75<747.115 800.375>
LayerCount: 2
Fore
SplineSet
327 413 m 1
 361 314 379 248 379 215 c 0
 379 179 355 173 345 173 c 0
 334 173 326 179 324 181 c 0
 270 215 160 430 84 537 c 1
 132 392 285 84 322 11 c 0
 324 8 325 4 325 -0 c 0
 325 -14 314 -25 300 -25 c 0
 286 -25 280 -15 278 -12 c 0
 267 6 216 108 160 199 c 0
 57 363 11 375 0 375 c 0
 -14 375 -25 386 -25 400 c 0
 -25 414 -14 425 0 425 c 0
 33 425 65 401 97 368 c 1
 47 482 21 555 21 588 c 0
 21 618 42 627 55 627 c 0
 66 627 74 621 76 619 c 0
 131 584 248 354 323 253 c 1
 291 397 140 758 127 790 c 0
 126 793 125 797 125 800 c 0
 125 814 136 825 150 825 c 0
 156 825 163 823 168 818 c 0
 174 812 179 800 200 749 c 0
 221 700 250 630 283 568 c 0
 345 450 384 425 400 425 c 0
 414 425 425 414 425 400 c 0
 425 386 414 375 400 375 c 0
 372 375 348 391 327 413 c 1
EndSplineSet
Validated: 1
EndChar

StartChar: uacute
Encoding: 250 250 247
Width: 400
Flags: W
HStem: -25 50<144.475 255.525> 375 50<-24.8024 140.459 259.541 424.802>
VStem: 54 50<70.6259 240.92> 296 50<70.6259 242.269>
LayerCount: 2
Fore
SplineSet
200 25 m 0
 262 25 296 89 296 153 c 0
 296 201 278 253 236 295 c 0
 226 305 214 315 200 324 c 1
 131 279 104 211 104 153 c 0
 104 89 138 25 200 25 c 0
150 350 m 1
 110 365 61 375 0 375 c 0
 -14 375 -25 386 -25 400 c 0
 -25 414 -14 425 -0 425 c 0
 82 425 148 409 200 382 c 1
 252 409 318 425 400 425 c 0
 414 425 425 414 425 400 c 0
 425 386 414 375 400 375 c 0
 339 375 290 365 250 350 c 1
 336 280 346 190 346 153 c 0
 346 54 285 -25 200 -25 c 0
 115 -25 54 54 54 153 c 0
 54 260 121 326 150 350 c 1
EndSplineSet
Validated: 1
EndChar

